<svg width="39" height="39" viewBox="0 0 39 39" fill="none" xmlns="http://www.w3.org/2000/svg">
<mask id="path-1-outside-1_27:419" maskUnits="userSpaceOnUse" x="-0.476593" y="-0.626648" width="40" height="40" fill="black">
<rect fill="white" x="-0.476593" y="-0.626648" width="40" height="40"/>
<path d="M30.8294 0.293522C30.6273 0.345909 29.7292 1.19911 26.7879 4.14042L23.0084 7.91248H14.2743H5.54016L5.51771 5.02356L5.49526 2.13464L5.31564 1.99244C4.96388 1.70804 3.88615 1.85773 2.92068 2.32175C2.22464 2.65854 1.37893 3.51175 1.01968 4.22275C0.480816 5.31545 0.510753 4.44728 0.533206 18.2782L0.555658 30.702L0.73528 31.2259C1.08704 32.2737 1.93276 33.2616 2.86829 33.7256C3.83376 34.1971 3.42212 34.1822 13.1292 34.1822H21.9606L20.2991 35.8437C18.458 37.6848 18.3682 37.8195 18.7274 38.1788L18.922 38.3734H28.6964H38.4708L38.6505 38.1862L38.8376 38.0066V28.2696C38.8376 22.1774 38.8076 18.4802 38.7627 18.3979C38.7253 18.3231 38.5981 18.2183 38.4708 18.1734C38.1565 18.0387 37.9694 18.1659 37.0413 19.0939L36.2555 19.8873L36.2181 14.087L36.1807 8.29418L36.0085 8.12204C35.8439 7.9499 35.8139 7.9499 33.5836 7.92745L31.3234 7.90499L32.9849 6.24349C34.0551 5.16576 34.6838 4.4847 34.7586 4.30507C34.9158 3.91589 34.9008 3.30967 34.7212 2.93546C34.6314 2.74835 34.1075 2.17207 33.4265 1.49848C32.5283 0.615341 32.2215 0.353394 31.9895 0.286037C31.6302 0.18874 31.1887 0.18874 30.8294 0.293522ZM32.7155 2.35917C34.0252 3.66891 34.0177 3.62401 33.1121 4.53709L32.476 5.18073L31.1887 3.88596L29.8939 2.59867L30.5375 1.96251C31.4506 1.05691 31.4057 1.04943 32.7155 2.35917ZM4.41004 11.6172C4.41004 20.0893 4.41004 20.1866 4.55973 20.3363C4.84413 20.6207 5.30815 20.501 5.45035 20.1043C5.51023 19.9397 5.53268 18.2183 5.53268 14.4911V9.10996H13.6681H21.8034L20.1793 10.7415C19.2887 11.6396 18.5553 12.4255 18.5553 12.5003C18.5553 12.9045 18.9594 13.2263 19.3112 13.0841C19.4085 13.0467 21.2421 11.2579 23.3826 9.11744L27.2744 5.21815L28.5617 6.50544L29.8565 7.80022L24.0412 13.6155L18.2185 19.4382L16.9312 18.1509L15.6364 16.8562L16.8339 15.6587C18.1361 14.3414 18.211 14.2217 17.8443 13.8625C17.4775 13.4882 17.3802 13.5481 15.8011 15.1198L14.3491 16.5718L13.3986 19.2586L12.4481 21.9454L11.3779 21.9829C10.3675 22.0203 10.3001 22.0278 10.1654 22.1999C9.97832 22.4319 9.9858 22.7163 10.1879 22.9334L10.345 23.1055H18.3457H26.3464L26.526 22.9184C26.7505 22.7013 26.7655 22.4394 26.5709 22.1999L26.4287 22.0203L20.7556 21.9829L15.0901 21.9454L16.7665 21.3617L18.443 20.7704L24.2807 14.9402L30.1184 9.10996H32.6107H35.0954V15.0749V21.0473L30.9791 25.1637C27.4241 28.7187 26.8628 29.3099 26.8628 29.5045C26.8628 29.7964 27.1247 30.0658 27.4166 30.0658C27.6262 30.0658 28.2025 29.512 32.678 25.0364L37.7149 19.9995V22.4843V24.9616L37.0863 24.984C36.3528 25.0215 36.1432 25.1412 36.1432 25.5528C36.1432 25.9869 36.3378 26.0992 37.0788 26.0992H37.7149V26.9599V27.8206H37.1012C36.3827 27.8206 36.1432 27.9628 36.1432 28.3894C36.1432 28.7935 36.4127 28.9432 37.1237 28.9432H37.7149V29.8039V30.6646H37.0788C36.3378 30.6646 36.1432 30.7768 36.1432 31.2109C36.1432 31.6226 36.3528 31.7423 37.0863 31.7797L37.7149 31.8022V32.6105V33.4188L37.0863 33.4412C36.3528 33.4787 36.1432 33.5984 36.1432 34.01C36.1432 34.4441 36.3378 34.5564 37.0788 34.5564H37.7149V35.9036V37.2507H29.0931H20.4637L23.4051 34.3094C25.074 32.6404 26.3389 31.3157 26.3389 31.2409C26.3389 31.0762 26.2042 30.7993 26.0844 30.7245C26.0395 30.6945 25.8898 30.6646 25.7476 30.6646C25.5156 30.6646 25.3734 30.7768 24.2807 31.8621L23.0757 33.0595H13.7579C3.72898 33.0595 4.04332 33.0745 3.27244 32.6778C2.83087 32.4533 2.22464 31.8172 1.99263 31.3382C1.44628 30.223 1.61094 29.0106 2.4342 28.0002C2.92816 27.3865 4.00589 26.8476 4.73935 26.8476C4.98633 26.8476 5.12853 26.8027 5.2857 26.668L5.49526 26.4884V24.2356C5.49526 22.0203 5.49526 21.9829 5.33061 21.8257C5.12853 21.6236 4.76929 21.6086 4.55973 21.7958C4.41753 21.923 4.41004 22.0203 4.41004 23.824V25.7175L4.09571 25.7998C3.18263 26.0393 2.65873 26.2938 2.03005 26.8252L1.64087 27.162V16.6167C1.64087 9.327 1.66333 5.92916 1.7232 5.62979C1.87289 4.82149 2.3893 4.00571 3.04043 3.55665C3.42961 3.2947 3.99093 3.05521 4.24539 3.04772H4.41004V11.6172ZM30.4178 4.69426L31.6901 5.96658L31.1662 6.49047L30.6423 7.01437L29.355 5.72708L28.0603 4.43231L28.5617 3.93086C28.8386 3.64646 29.0856 3.42193 29.108 3.42193C29.1305 3.42193 29.7218 3.99074 30.4178 4.69426ZM17.036 20.0519C16.9836 20.0819 16.6318 20.2166 16.2426 20.3438L15.5466 20.5758L15.0152 20.0519L14.4913 19.528L14.7757 18.7272L15.0601 17.9264L16.0929 18.9592C16.7965 19.6627 17.0958 20.0145 17.036 20.0519Z"/>
</mask>
<path d="M30.8294 0.293522C30.6273 0.345909 29.7292 1.19911 26.7879 4.14042L23.0084 7.91248H14.2743H5.54016L5.51771 5.02356L5.49526 2.13464L5.31564 1.99244C4.96388 1.70804 3.88615 1.85773 2.92068 2.32175C2.22464 2.65854 1.37893 3.51175 1.01968 4.22275C0.480816 5.31545 0.510753 4.44728 0.533206 18.2782L0.555658 30.702L0.73528 31.2259C1.08704 32.2737 1.93276 33.2616 2.86829 33.7256C3.83376 34.1971 3.42212 34.1822 13.1292 34.1822H21.9606L20.2991 35.8437C18.458 37.6848 18.3682 37.8195 18.7274 38.1788L18.922 38.3734H28.6964H38.4708L38.6505 38.1862L38.8376 38.0066V28.2696C38.8376 22.1774 38.8076 18.4802 38.7627 18.3979C38.7253 18.3231 38.5981 18.2183 38.4708 18.1734C38.1565 18.0387 37.9694 18.1659 37.0413 19.0939L36.2555 19.8873L36.2181 14.087L36.1807 8.29418L36.0085 8.12204C35.8439 7.9499 35.8139 7.9499 33.5836 7.92745L31.3234 7.90499L32.9849 6.24349C34.0551 5.16576 34.6838 4.4847 34.7586 4.30507C34.9158 3.91589 34.9008 3.30967 34.7212 2.93546C34.6314 2.74835 34.1075 2.17207 33.4265 1.49848C32.5283 0.615341 32.2215 0.353394 31.9895 0.286037C31.6302 0.18874 31.1887 0.18874 30.8294 0.293522ZM32.7155 2.35917C34.0252 3.66891 34.0177 3.62401 33.1121 4.53709L32.476 5.18073L31.1887 3.88596L29.8939 2.59867L30.5375 1.96251C31.4506 1.05691 31.4057 1.04943 32.7155 2.35917ZM4.41004 11.6172C4.41004 20.0893 4.41004 20.1866 4.55973 20.3363C4.84413 20.6207 5.30815 20.501 5.45035 20.1043C5.51023 19.9397 5.53268 18.2183 5.53268 14.4911V9.10996H13.6681H21.8034L20.1793 10.7415C19.2887 11.6396 18.5553 12.4255 18.5553 12.5003C18.5553 12.9045 18.9594 13.2263 19.3112 13.0841C19.4085 13.0467 21.2421 11.2579 23.3826 9.11744L27.2744 5.21815L28.5617 6.50544L29.8565 7.80022L24.0412 13.6155L18.2185 19.4382L16.9312 18.1509L15.6364 16.8562L16.8339 15.6587C18.1361 14.3414 18.211 14.2217 17.8443 13.8625C17.4775 13.4882 17.3802 13.5481 15.8011 15.1198L14.3491 16.5718L13.3986 19.2586L12.4481 21.9454L11.3779 21.9829C10.3675 22.0203 10.3001 22.0278 10.1654 22.1999C9.97832 22.4319 9.9858 22.7163 10.1879 22.9334L10.345 23.1055H18.3457H26.3464L26.526 22.9184C26.7505 22.7013 26.7655 22.4394 26.5709 22.1999L26.4287 22.0203L20.7556 21.9829L15.0901 21.9454L16.7665 21.3617L18.443 20.7704L24.2807 14.9402L30.1184 9.10996H32.6107H35.0954V15.0749V21.0473L30.9791 25.1637C27.4241 28.7187 26.8628 29.3099 26.8628 29.5045C26.8628 29.7964 27.1247 30.0658 27.4166 30.0658C27.6262 30.0658 28.2025 29.512 32.678 25.0364L37.7149 19.9995V22.4843V24.9616L37.0863 24.984C36.3528 25.0215 36.1432 25.1412 36.1432 25.5528C36.1432 25.9869 36.3378 26.0992 37.0788 26.0992H37.7149V26.9599V27.8206H37.1012C36.3827 27.8206 36.1432 27.9628 36.1432 28.3894C36.1432 28.7935 36.4127 28.9432 37.1237 28.9432H37.7149V29.8039V30.6646H37.0788C36.3378 30.6646 36.1432 30.7768 36.1432 31.2109C36.1432 31.6226 36.3528 31.7423 37.0863 31.7797L37.7149 31.8022V32.6105V33.4188L37.0863 33.4412C36.3528 33.4787 36.1432 33.5984 36.1432 34.01C36.1432 34.4441 36.3378 34.5564 37.0788 34.5564H37.7149V35.9036V37.2507H29.0931H20.4637L23.4051 34.3094C25.074 32.6404 26.3389 31.3157 26.3389 31.2409C26.3389 31.0762 26.2042 30.7993 26.0844 30.7245C26.0395 30.6945 25.8898 30.6646 25.7476 30.6646C25.5156 30.6646 25.3734 30.7768 24.2807 31.8621L23.0757 33.0595H13.7579C3.72898 33.0595 4.04332 33.0745 3.27244 32.6778C2.83087 32.4533 2.22464 31.8172 1.99263 31.3382C1.44628 30.223 1.61094 29.0106 2.4342 28.0002C2.92816 27.3865 4.00589 26.8476 4.73935 26.8476C4.98633 26.8476 5.12853 26.8027 5.2857 26.668L5.49526 26.4884V24.2356C5.49526 22.0203 5.49526 21.9829 5.33061 21.8257C5.12853 21.6236 4.76929 21.6086 4.55973 21.7958C4.41753 21.923 4.41004 22.0203 4.41004 23.824V25.7175L4.09571 25.7998C3.18263 26.0393 2.65873 26.2938 2.03005 26.8252L1.64087 27.162V16.6167C1.64087 9.327 1.66333 5.92916 1.7232 5.62979C1.87289 4.82149 2.3893 4.00571 3.04043 3.55665C3.42961 3.2947 3.99093 3.05521 4.24539 3.04772H4.41004V11.6172ZM30.4178 4.69426L31.6901 5.96658L31.1662 6.49047L30.6423 7.01437L29.355 5.72708L28.0603 4.43231L28.5617 3.93086C28.8386 3.64646 29.0856 3.42193 29.108 3.42193C29.1305 3.42193 29.7218 3.99074 30.4178 4.69426ZM17.036 20.0519C16.9836 20.0819 16.6318 20.2166 16.2426 20.3438L15.5466 20.5758L15.0152 20.0519L14.4913 19.528L14.7757 18.7272L15.0601 17.9264L16.0929 18.9592C16.7965 19.6627 17.0958 20.0145 17.036 20.0519Z" fill="#E31E24"/>
<path d="M30.8294 0.293522C30.6273 0.345909 29.7292 1.19911 26.7879 4.14042L23.0084 7.91248H14.2743H5.54016L5.51771 5.02356L5.49526 2.13464L5.31564 1.99244C4.96388 1.70804 3.88615 1.85773 2.92068 2.32175C2.22464 2.65854 1.37893 3.51175 1.01968 4.22275C0.480816 5.31545 0.510753 4.44728 0.533206 18.2782L0.555658 30.702L0.73528 31.2259C1.08704 32.2737 1.93276 33.2616 2.86829 33.7256C3.83376 34.1971 3.42212 34.1822 13.1292 34.1822H21.9606L20.2991 35.8437C18.458 37.6848 18.3682 37.8195 18.7274 38.1788L18.922 38.3734H28.6964H38.4708L38.6505 38.1862L38.8376 38.0066V28.2696C38.8376 22.1774 38.8076 18.4802 38.7627 18.3979C38.7253 18.3231 38.5981 18.2183 38.4708 18.1734C38.1565 18.0387 37.9694 18.1659 37.0413 19.0939L36.2555 19.8873L36.2181 14.087L36.1807 8.29418L36.0085 8.12204C35.8439 7.9499 35.8139 7.9499 33.5836 7.92745L31.3234 7.90499L32.9849 6.24349C34.0551 5.16576 34.6838 4.4847 34.7586 4.30507C34.9158 3.91589 34.9008 3.30967 34.7212 2.93546C34.6314 2.74835 34.1075 2.17207 33.4265 1.49848C32.5283 0.615341 32.2215 0.353394 31.9895 0.286037C31.6302 0.18874 31.1887 0.18874 30.8294 0.293522ZM32.7155 2.35917C34.0252 3.66891 34.0177 3.62401 33.1121 4.53709L32.476 5.18073L31.1887 3.88596L29.8939 2.59867L30.5375 1.96251C31.4506 1.05691 31.4057 1.04943 32.7155 2.35917ZM4.41004 11.6172C4.41004 20.0893 4.41004 20.1866 4.55973 20.3363C4.84413 20.6207 5.30815 20.501 5.45035 20.1043C5.51023 19.9397 5.53268 18.2183 5.53268 14.4911V9.10996H13.6681H21.8034L20.1793 10.7415C19.2887 11.6396 18.5553 12.4255 18.5553 12.5003C18.5553 12.9045 18.9594 13.2263 19.3112 13.0841C19.4085 13.0467 21.2421 11.2579 23.3826 9.11744L27.2744 5.21815L28.5617 6.50544L29.8565 7.80022L24.0412 13.6155L18.2185 19.4382L16.9312 18.1509L15.6364 16.8562L16.8339 15.6587C18.1361 14.3414 18.211 14.2217 17.8443 13.8625C17.4775 13.4882 17.3802 13.5481 15.8011 15.1198L14.3491 16.5718L13.3986 19.2586L12.4481 21.9454L11.3779 21.9829C10.3675 22.0203 10.3001 22.0278 10.1654 22.1999C9.97832 22.4319 9.9858 22.7163 10.1879 22.9334L10.345 23.1055H18.3457H26.3464L26.526 22.9184C26.7505 22.7013 26.7655 22.4394 26.5709 22.1999L26.4287 22.0203L20.7556 21.9829L15.0901 21.9454L16.7665 21.3617L18.443 20.7704L24.2807 14.9402L30.1184 9.10996H32.6107H35.0954V15.0749V21.0473L30.9791 25.1637C27.4241 28.7187 26.8628 29.3099 26.8628 29.5045C26.8628 29.7964 27.1247 30.0658 27.4166 30.0658C27.6262 30.0658 28.2025 29.512 32.678 25.0364L37.7149 19.9995V22.4843V24.9616L37.0863 24.984C36.3528 25.0215 36.1432 25.1412 36.1432 25.5528C36.1432 25.9869 36.3378 26.0992 37.0788 26.0992H37.7149V26.9599V27.8206H37.1012C36.3827 27.8206 36.1432 27.9628 36.1432 28.3894C36.1432 28.7935 36.4127 28.9432 37.1237 28.9432H37.7149V29.8039V30.6646H37.0788C36.3378 30.6646 36.1432 30.7768 36.1432 31.2109C36.1432 31.6226 36.3528 31.7423 37.0863 31.7797L37.7149 31.8022V32.6105V33.4188L37.0863 33.4412C36.3528 33.4787 36.1432 33.5984 36.1432 34.01C36.1432 34.4441 36.3378 34.5564 37.0788 34.5564H37.7149V35.9036V37.2507H29.0931H20.4637L23.4051 34.3094C25.074 32.6404 26.3389 31.3157 26.3389 31.2409C26.3389 31.0762 26.2042 30.7993 26.0844 30.7245C26.0395 30.6945 25.8898 30.6646 25.7476 30.6646C25.5156 30.6646 25.3734 30.7768 24.2807 31.8621L23.0757 33.0595H13.7579C3.72898 33.0595 4.04332 33.0745 3.27244 32.6778C2.83087 32.4533 2.22464 31.8172 1.99263 31.3382C1.44628 30.223 1.61094 29.0106 2.4342 28.0002C2.92816 27.3865 4.00589 26.8476 4.73935 26.8476C4.98633 26.8476 5.12853 26.8027 5.2857 26.668L5.49526 26.4884V24.2356C5.49526 22.0203 5.49526 21.9829 5.33061 21.8257C5.12853 21.6236 4.76929 21.6086 4.55973 21.7958C4.41753 21.923 4.41004 22.0203 4.41004 23.824V25.7175L4.09571 25.7998C3.18263 26.0393 2.65873 26.2938 2.03005 26.8252L1.64087 27.162V16.6167C1.64087 9.327 1.66333 5.92916 1.7232 5.62979C1.87289 4.82149 2.3893 4.00571 3.04043 3.55665C3.42961 3.2947 3.99093 3.05521 4.24539 3.04772H4.41004V11.6172ZM30.4178 4.69426L31.6901 5.96658L31.1662 6.49047L30.6423 7.01437L29.355 5.72708L28.0603 4.43231L28.5617 3.93086C28.8386 3.64646 29.0856 3.42193 29.108 3.42193C29.1305 3.42193 29.7218 3.99074 30.4178 4.69426ZM17.036 20.0519C16.9836 20.0819 16.6318 20.2166 16.2426 20.3438L15.5466 20.5758L15.0152 20.0519L14.4913 19.528L14.7757 18.7272L15.0601 17.9264L16.0929 18.9592C16.7965 19.6627 17.0958 20.0145 17.036 20.0519Z" stroke="#E31E24" stroke-width="0.42577" mask="url(#path-1-outside-1_27:419)"/>
<path d="M34.7802 33.9786L34.7802 33.9785C34.7931 33.929 34.803 33.8157 34.8111 33.6494C34.8193 33.4804 34.8258 33.2505 34.8305 32.9631C34.8399 32.3881 34.8418 31.5812 34.8343 30.5669L34.8118 27.431L34.8116 27.4055L34.7916 27.3896L34.612 27.2474L34.6114 27.247L34.6114 27.247C34.5572 27.2053 34.4827 27.1674 34.4061 27.1399C34.3297 27.1125 34.2466 27.0937 34.1748 27.0937C34.1055 27.0937 34.0316 27.1237 33.9198 27.2031C33.8076 27.2828 33.6498 27.4181 33.4116 27.6404C32.9346 28.0855 32.1274 28.8871 30.7019 30.3126C29.1756 31.8389 28.3738 32.6426 27.9537 33.0973C27.7442 33.3242 27.6269 33.4671 27.5622 33.5711C27.5295 33.6237 27.5093 33.6678 27.4975 33.7092C27.4856 33.7509 27.4831 33.7873 27.4831 33.8229C27.4831 33.9309 27.4945 34.0182 27.5289 34.0946C27.5637 34.1716 27.6193 34.2322 27.6982 34.2915C27.7499 34.3332 27.7982 34.3672 27.8909 34.3918C27.9802 34.4155 28.1103 34.4304 28.3263 34.4402C28.7588 34.4599 29.5529 34.4599 31.095 34.4599H31.0988C32.2252 34.4599 33.0304 34.4543 33.5719 34.4402C33.8425 34.4332 34.048 34.4241 34.1952 34.4124C34.2687 34.4065 34.3284 34.4 34.3748 34.3926C34.4191 34.3856 34.456 34.3771 34.4812 34.3653M34.7802 33.9786L34.482 34.365C34.4817 34.3651 34.4815 34.3652 34.4812 34.3653M34.7802 33.9786L34.7796 33.9806C34.7245 34.1614 34.6197 34.3044 34.4812 34.3653M34.7802 33.9786L34.4812 34.3653M31.5628 33.2308H33.6202V31.1885C33.6202 30.6122 33.6183 30.0885 33.6145 29.709C33.6127 29.5191 33.6103 29.3656 33.6075 29.2596C33.6071 29.2413 33.6066 29.2245 33.6061 29.2092C33.5816 29.2331 33.552 29.2622 33.5174 29.2962C33.4093 29.4025 33.2538 29.5563 33.0626 29.7462C32.68 30.126 32.1543 30.6498 31.578 31.2261L29.5733 33.2308H31.5628Z" fill="#E31E24" stroke="#E31E24" stroke-width="0.106443"/>
</svg>
