<svg width="809" height="163" viewBox="0 0 809 163" fill="none" xmlns="http://www.w3.org/2000/svg">
<path fill-rule="evenodd" clip-rule="evenodd" d="M412.43 4.76001L436.96 47.25V4.76001H412.43Z" fill="#2B2A29"/>
<path d="M412.43 4.76001L436.96 47.25V4.76001H412.43Z" stroke="#2B2A29" stroke-width="0.4086" stroke-miterlimit="22.9256"/>
<path fill-rule="evenodd" clip-rule="evenodd" d="M402.03 8.12001L488.98 158.71H445.16L402.03 84.02V8.12001Z" fill="#E31E24"/>
<path fill-rule="evenodd" clip-rule="evenodd" d="M402.03 111.08L429.53 158.71H402.03V111.08Z" fill="#2B2A29"/>
<path d="M402.03 111.08L429.53 158.71H402.03V111.08Z" stroke="#2B2A29" stroke-width="0.4086" stroke-miterlimit="22.9256"/>
<path fill-rule="evenodd" clip-rule="evenodd" d="M477.56 117.59H500.48V157.27L477.56 117.59Z" fill="#2B2A29"/>
<path d="M477.56 117.59H500.48V157.27L477.56 117.59Z" stroke="#2B2A29" stroke-width="0.4086" stroke-miterlimit="22.9256"/>
<path d="M329.09 128.88H272.34L261.79 159.2H223.06L282.31 3.12001H319.7L379.14 159.2H339.64L329.09 128.88ZM317.97 96.33L300.71 46.38L283.45 96.33H317.97Z" fill="#2B2A29"/>
<path d="M638.63 125.09V159.2H530.88V3.13H636.14V37.24H568.46V63.55H628.09V96.55H568.46V125.09H638.63Z" fill="#2B2A29"/>
<path d="M690.97 151.84C679.21 144.85 669.97 135.19 663.26 122.85C656.55 110.51 653.19 96.62 653.19 81.16C653.19 65.7 656.55 51.81 663.26 39.47C669.97 27.13 679.21 17.47 690.97 10.48C702.73 3.50001 715.99 0 730.75 0C745.5 0 758.76 3.49001 770.52 10.48C782.28 17.47 791.52 27.13 798.23 39.47C804.94 51.81 808.3 65.71 808.3 81.16C808.3 96.62 804.94 110.52 798.23 122.85C791.52 135.19 782.28 144.85 770.52 151.84C758.76 158.83 745.5 162.32 730.75 162.32C715.99 162.32 702.73 158.83 690.97 151.84ZM749.88 120.18C755.59 116.47 760.11 111.23 763.44 104.46C766.76 97.7 768.42 89.93 768.42 81.16C768.42 72.39 766.76 64.63 763.44 57.86C760.12 51.1 755.6 45.86 749.88 42.14C744.16 38.43 737.78 36.57 730.74 36.57C723.69 36.57 717.31 38.43 711.6 42.14C705.88 45.86 701.36 51.1 698.04 57.86C694.72 64.63 693.06 72.39 693.06 81.16C693.06 89.93 694.72 97.7 698.04 104.46C701.36 111.23 705.88 116.47 711.6 120.18C717.31 123.9 723.69 125.75 730.74 125.75C737.79 125.76 744.17 123.9 749.88 120.18Z" fill="#2B2A29"/>
<path d="M74.81 95.36L39.12 3.13H0L55.07 159.2H95.71L95.87 158.64L74.81 95.36Z" fill="#E31E24"/>
<path d="M191.71 151.36L244.92 3.13H208.68L174.46 87.71L191.71 151.36Z" fill="#2B2A29"/>
<path d="M100.5 22.69L82.79 84.89L101.14 140L117.04 83.72L100.5 22.69Z" fill="#2B2A29"/>
<path d="M168.03 103.59L168 103.68L160.11 74.35L151.88 43.98L151.94 43.96L140.96 3.13H106.07L105.99 3.39001L122.52 64.35L122.56 64.22L148.25 159.2H183.11L168.03 103.59Z" fill="#E31E24"/>
</svg>
