<svg width="39" height="39" viewBox="0 0 39 39" fill="none" xmlns="http://www.w3.org/2000/svg">
<path fill-rule="evenodd" clip-rule="evenodd" d="M10.0582 4.66136C10.8141 2.39363 12.7525 0.747101 15.125 0.342953C15.3196 0.313015 17.6098 0.283077 20.2143 0.275593C24.5926 0.268108 24.9743 0.275593 25.3784 0.402824C26.4636 0.747101 27.0474 1.45062 27.0624 2.44603L27.0699 2.8876L27.489 3.11961C28.0503 3.44143 28.6041 4.0252 28.9334 4.65388C29.4424 5.62683 29.4573 5.70167 29.4274 8.74776L29.4049 11.4645L28.9035 12.4749C28.2823 13.7323 28.0578 14.4358 27.8332 15.9102C27.4141 18.5671 26.7405 20.1088 25.4233 21.4335L24.8021 22.0547V22.7657C24.8021 23.4244 24.8096 23.4767 24.9743 23.5441C25.0427 23.5726 25.7892 23.8446 26.7766 24.2042C27.0848 24.3165 27.4165 24.4373 27.7584 24.562C34.1499 26.8596 35.1903 27.2413 35.6169 27.4658C36.5 27.9224 37.3757 29.0001 37.705 30.018C37.922 30.699 38.7378 35.8931 38.6929 36.3272C38.6255 37.0981 38.0492 37.8914 37.3158 38.2357L36.964 38.4003H19.5632H2.16229L1.81053 38.2357C1.06211 37.8914 0.508276 37.113 0.425949 36.3197C0.388528 35.8856 1.21179 30.6841 1.42135 30.018C1.74318 29.0226 2.61135 27.9374 3.44958 27.4883C3.76392 27.3162 8.58377 25.5424 13.2016 23.8959L14.2868 23.5067L14.3092 22.8256L14.3317 22.1446L13.7254 21.5533C12.7899 20.6477 12.1837 19.6298 11.7571 18.2677C11.4353 17.2424 11.3305 16.5912 11.2556 15.1842C11.1733 13.5901 11.091 13.2907 10.5072 12.4375C10.2902 12.1231 10.0282 11.6217 9.92345 11.3223C9.74383 10.8134 9.72886 10.6862 9.69893 8.87499C9.66151 6.57733 9.74383 5.61186 10.0582 4.66136ZM25.7751 2.42357C25.7751 2.13917 25.4533 1.7949 25.0491 1.66018C24.7423 1.5554 24.1435 1.54043 20.2816 1.54792C17.8493 1.5554 15.7761 1.57037 15.6714 1.58533C14.8631 1.71257 14.4963 1.81735 13.8751 2.11672C13.2689 2.4086 13.0668 2.5508 12.5205 3.11212C11.9966 3.62854 11.8095 3.89048 11.5625 4.39193C11.0685 5.42475 11.0311 5.67921 11.0386 8.27625C11.0461 9.5336 11.076 10.6413 11.106 10.746C11.1509 10.8808 11.1658 10.7835 11.1733 10.4093C11.1958 8.6804 12.2361 7.18355 13.8602 6.54739C14.2493 6.39022 14.4514 6.36777 16.1952 6.33035L18.1037 6.28544L19.2638 5.84387C20.4014 5.40978 20.4388 5.4023 21.1723 5.4023H21.9207L23.7543 6.05343C24.7572 6.41267 25.7676 6.81682 25.9921 6.95154C26.7705 7.41556 27.4216 8.20141 27.736 9.06209C27.8632 9.40637 27.9081 9.75064 27.938 10.5215C27.9829 11.5319 27.9829 11.5319 28.0802 11.1352C28.1401 10.8658 28.17 10.0201 28.17 8.47084C28.17 6.36777 28.1626 6.18066 28.0129 5.73909C27.7285 4.90834 27.1372 4.3096 26.2915 4.00274C25.6778 3.77822 25.573 3.60608 25.6853 3.04477C25.7377 2.80527 25.7751 2.52835 25.7751 2.42357ZM25.1988 8.02927C25.0042 7.92449 24.1061 7.5877 23.208 7.27336C21.1947 6.56984 21.1124 6.56236 19.8251 7.04883C19.089 7.324 18.7181 7.46796 18.3339 7.54756C17.882 7.64116 17.4117 7.64576 16.3075 7.67002C14.5188 7.71493 14.4215 7.72241 14.0622 7.90204C13.5608 8.14902 13.0144 8.71034 12.7675 9.23423L12.5654 9.66083V12.9539C12.5654 16.0599 12.5804 16.2844 12.73 16.9206C13.0668 18.3426 13.6431 19.57 14.3167 20.3408C14.7583 20.8348 16.9811 22.4364 17.7969 22.8406C18.6201 23.2447 19.2488 23.3645 20.0571 23.2447C21.0226 23.1175 21.7635 22.7433 22.7814 21.8976C23.1331 21.6057 23.5672 21.2689 23.7543 21.1417C24.8545 20.4157 25.7152 19.1284 26.1792 17.5118C26.5609 16.217 26.6058 15.5958 26.5834 12.4674L26.5609 9.58599L26.3589 9.21178C26.1044 8.71782 25.6404 8.2538 25.1988 8.02927ZM23.5298 23.589V23.3046C23.5298 23.1474 23.5223 23.0202 23.5148 23.0277C23.4999 23.0277 23.3277 23.1624 23.1182 23.3271C22.6018 23.7387 21.3594 24.33 20.7082 24.4722C20.0272 24.6218 18.9045 24.6293 18.3432 24.4796C17.7819 24.3374 16.9661 23.9408 16.2476 23.4767C15.9258 23.2672 15.6489 23.0951 15.6339 23.0951C15.6115 23.0951 15.5965 23.2073 15.5965 23.342C15.5965 23.589 15.6489 23.6264 17.5798 24.9212L19.5706 26.2384L21.5465 24.9137L23.5298 23.589ZM17.5206 26.4705C17.2873 26.3151 17.0281 26.1426 16.7566 25.9615C15.7686 25.3029 14.9304 24.7491 14.8855 24.7266C14.7807 24.6742 13.4635 25.1532 13.4635 25.2505C13.4635 25.3478 16.2177 30.3548 16.2701 30.3548C16.33 30.3548 18.6127 27.2114 18.5827 27.1814C18.5719 27.1706 18.136 26.8803 17.5206 26.4705ZM22.8413 30.3398C22.9011 30.3548 25.6628 25.3777 25.6628 25.2505C25.6628 25.2056 25.356 25.0634 24.9743 24.9287L24.2932 24.6817L22.4147 25.9316C21.3818 26.6126 20.5511 27.2114 20.566 27.2563C20.611 27.376 22.7814 30.3173 22.8413 30.3398ZM9.68396 29.1573C9.68396 29.0375 9.9983 28.3116 10.395 27.5108C10.7916 26.7174 11.106 26.0663 11.091 26.0588C11.0311 26.0139 4.34769 28.4837 4.06329 28.6484C3.62172 28.9103 3.08286 29.4941 2.83588 29.9806C2.55896 30.5344 1.62343 36.0054 1.75066 36.3796C1.85544 36.6864 2.17726 37.0008 2.50657 37.0906C2.82091 37.1804 17.8642 37.1954 17.8268 37.1056C17.8193 37.0681 16.3824 35.7359 14.646 34.1493C12.0136 31.7417 11.4267 31.247 11.4718 30.8189C11.4882 30.6627 11.5887 30.5154 11.7047 30.2874L11.9217 29.8458L10.9862 29.8159L10.9813 29.8158C10.0581 29.7934 10.0429 29.7931 9.86358 29.5839C9.76628 29.4641 9.68396 29.277 9.68396 29.1573ZM35.0032 28.6184C34.8011 28.5062 33.2444 27.9149 31.5379 27.3012C30.9358 27.082 30.3606 26.873 29.8634 26.6924C28.9518 26.3612 28.3026 26.1253 28.2299 26.0962C28.1102 26.0513 28.0204 26.0289 28.0204 26.0513C28.0204 26.0663 28.3422 26.7249 28.7314 27.5182C29.128 28.3191 29.4424 29.0375 29.4424 29.1573C29.4424 29.277 29.36 29.4641 29.2627 29.5839C29.0834 29.7931 29.0682 29.7934 28.145 29.8158L28.1401 29.8159L27.2046 29.8458L27.4216 30.2874C27.5488 30.5269 27.6461 30.8338 27.6461 30.976C27.6461 30.999 27.6461 31.0203 27.6445 31.0414C27.6247 31.2949 27.3669 31.5298 24.0163 34.5834C22.5344 35.938 21.3145 37.0681 21.2995 37.1056C21.2621 37.1954 36.3054 37.1804 36.6422 37.0906C36.9565 37.0008 37.3382 36.5966 37.4056 36.2898C37.428 36.17 37.2484 34.8753 36.979 33.2736C36.4476 30.1302 36.3728 29.8833 35.7366 29.2097C35.5271 28.9852 35.1977 28.7232 35.0032 28.6184ZM16.2325 33.0579C15.8031 32.2761 15.2092 31.1949 14.5861 30.0554C14.1206 29.2095 13.6897 28.4255 13.3417 27.7923C12.8338 26.8681 12.5025 26.2653 12.498 26.2609C12.4756 26.2309 11.4053 28.4089 11.4053 28.4837C11.4053 28.5286 11.7646 28.5585 12.3109 28.5585C13.209 28.5585 13.2165 28.5585 13.4336 28.7756C13.5533 28.8953 13.6506 29.0675 13.6506 29.1498C13.6506 29.2396 13.486 29.6438 13.2764 30.0554L12.9022 30.7963L14.646 32.383C15.2227 32.9143 15.7993 33.4428 16.2089 33.8181C16.4744 34.0614 16.6696 34.2403 16.7491 34.3139L17.1158 34.6582L16.8838 34.2466C16.8296 34.145 16.5871 33.7035 16.2325 33.0579ZM26.8154 28.5585C27.489 28.5585 27.721 28.5361 27.7135 28.4613C27.7135 28.4163 27.474 27.8925 27.1746 27.3087L26.6358 26.2384L24.6524 29.8458C23.5597 31.8292 22.5194 33.7227 22.3398 34.0595L22.018 34.6582L22.3398 34.3514C22.3691 34.3245 22.419 34.2789 22.4861 34.2175C22.8302 33.9026 23.6287 33.172 24.4429 32.4204L26.2241 30.7963L25.8499 30.0554C25.6404 29.6438 25.4757 29.2396 25.4757 29.1498C25.4757 29.0675 25.573 28.8953 25.6928 28.7756C25.9098 28.5585 25.9173 28.5585 26.8154 28.5585ZM20.0047 35.6237L20.4089 34.8977L21.2995 33.1905C21.3369 33.3027 22.1003 31.8965 22.1078 31.7169C22.1078 31.6645 21.8982 31.3352 21.6438 30.9909C21.3893 30.6392 21.1573 30.3548 21.1199 30.3548L20.2667 29.1348C20.2452 29.1091 20.1821 29.0196 20.0997 28.9027C20.0382 28.8156 19.966 28.7133 19.8925 28.6109L19.5781 28.1769L19.3611 28.4613C19.2995 28.542 19.2242 28.6445 19.1522 28.7424C19.0842 28.8349 19.0192 28.9233 18.9719 28.9852L18.8073 29.2321L17.999 30.3548C17.9316 30.3548 17.0185 31.6121 17.0185 31.7094C17.0185 31.8142 17.6397 32.9743 17.6996 32.9743L18.7324 34.9202L19.1291 35.6312C19.3461 36.0203 19.5407 36.3422 19.5632 36.3422C19.5856 36.3422 19.7802 36.0203 20.0047 35.6237Z" fill="#E31E24"/>
</svg>
