<svg width="42" height="37" viewBox="0 0 42 37" fill="none" xmlns="http://www.w3.org/2000/svg">
<mask id="path-1-outside-1_27:425" maskUnits="userSpaceOnUse" x="-0.411522" y="-0.491577" width="42" height="38" fill="black">
<rect fill="white" x="-0.411522" y="-0.491577" width="42" height="38"/>
<path d="M4.02499 0.436863C3.40089 0.713364 3.28239 1.10047 3.27449 2.91747V4.35528L1.93148 7.04129L0.588478 9.7273V10.8491C0.588478 12.2711 0.675378 12.8478 0.96768 13.4798C1.37848 14.3488 2.06578 14.9571 2.99799 15.2731L3.39299 15.4074L3.41669 23.6235L3.43249 31.8474H2.73729C2.15268 31.8474 1.97888 31.879 1.63918 32.0449C0.809679 32.4636 0.588478 32.9929 0.588478 34.5887C0.588478 35.8606 0.659578 36.1371 1.05458 36.3741C1.26788 36.5005 2.54769 36.5084 20.8126 36.5084C39.0774 36.5084 40.3573 36.5005 40.5705 36.3741C40.9656 36.1371 41.0367 35.8606 41.0367 34.5887C41.0367 32.9929 40.8155 32.4636 39.9859 32.0449C39.6462 31.879 39.4724 31.8474 38.8878 31.8474H38.1926L38.2084 23.6235L38.2321 15.3916L38.5481 15.2968C39.6067 14.9808 40.3889 14.2382 40.7997 13.1638C40.9577 12.753 40.9814 12.5002 41.0209 11.2283L41.0604 9.7668L39.7252 7.12029L38.3901 4.47378L38.3506 2.85427C38.3111 1.07677 38.2637 0.895065 37.7739 0.531662L37.5527 0.365761L23.7198 0.342064L9.87892 0.326263L9.69722 0.500065C9.38122 0.800266 9.49972 1.25846 9.94212 1.43227C10.0843 1.48757 14.5083 1.51127 23.6645 1.51127H37.1735L37.1498 2.67257L37.1261 3.84178H20.8126H4.499L4.47529 2.67257L4.45159 1.51127H5.8657C6.6952 1.51127 7.38251 1.47177 7.53261 1.42437C7.95921 1.27427 8.07771 0.800266 7.75381 0.500065C7.58001 0.334164 7.50891 0.326263 5.9131 0.326263C4.7202 0.334164 4.19879 0.357864 4.02499 0.436863ZM7.83281 5.16108C7.81701 5.21638 7.48521 6.14069 7.09811 7.21509L6.4029 9.1743H4.28569H2.16848L3.19549 7.12029L4.22249 5.06628H6.0474C7.47731 5.06628 7.86441 5.08998 7.83281 5.16108ZM12.8098 5.16108C12.794 5.21638 12.5886 6.14069 12.3595 7.21509L11.9329 9.1743H9.81572C8.65441 9.1743 7.69851 9.1427 7.69851 9.1111C7.69851 9.0795 8.02241 8.1631 8.40951 7.08079C8.80451 5.99849 9.12051 5.09788 9.12051 5.08998C9.12051 5.07418 9.95792 5.06628 10.9849 5.06628C12.4464 5.06628 12.8414 5.08998 12.8098 5.16108ZM17.7316 5.16108C17.7316 5.21638 17.6763 6.14069 17.5973 7.21509L17.463 9.1743H15.3062H13.1495L13.189 8.9926C13.268 8.6529 14.0185 5.12948 14.0185 5.09788C14.0185 5.08208 14.8559 5.06628 15.875 5.06628C17.305 5.06628 17.7316 5.08998 17.7316 5.16108ZM22.7797 6.42509C22.8271 7.17559 22.8982 8.0999 22.9219 8.4791L22.9693 9.1743H20.8126H18.6559L18.7033 8.4791C18.727 8.0999 18.7981 7.17559 18.8455 6.42509L18.9403 5.06628H20.8126H22.6849L22.7797 6.42509ZM27.6066 5.09788C27.6066 5.12948 28.3571 8.6529 28.4361 8.9926L28.4756 9.1743H26.3189H24.1622L24.0279 7.21509C23.9489 6.14069 23.8936 5.21638 23.8936 5.16108C23.8936 5.08998 24.3202 5.06628 25.7501 5.06628C26.7692 5.06628 27.6066 5.08208 27.6066 5.09788ZM32.5046 5.08998C32.5046 5.09788 32.8285 5.99849 33.2156 7.08079C33.6106 8.1631 33.9266 9.0795 33.9266 9.1111C33.9266 9.1427 32.9707 9.1743 31.8094 9.1743H29.6922L29.2656 7.21509C29.0365 6.14069 28.8311 5.21638 28.8153 5.16108C28.7837 5.08998 29.1787 5.06628 30.6402 5.06628C31.6672 5.06628 32.5046 5.07418 32.5046 5.08998ZM38.4296 7.12029L39.4566 9.1743H37.3394H35.2222L34.527 7.21509C34.1399 6.14069 33.8081 5.21638 33.7923 5.16108C33.7607 5.08998 34.1478 5.06628 35.5777 5.06628H37.4026L38.4296 7.12029ZM6.1975 11.4495C6.1975 12.516 6.1896 12.5555 5.9526 13.0374C5.526 13.8827 4.7755 14.2935 3.78799 14.2145C2.97429 14.1434 2.34229 13.6931 2.00258 12.9268C1.85248 12.6029 1.82088 12.3501 1.78928 11.4416L1.74978 10.3593H3.97759H6.1975V11.4495ZM11.7907 11.5206C11.767 12.5397 11.7433 12.7293 11.5932 13.0137C10.7084 14.6885 8.37791 14.6332 7.61161 12.9268C7.46151 12.595 7.42201 12.358 7.39831 11.4416L7.36671 10.3593H9.59452H11.8223L11.7907 11.5206ZM17.4156 11.3863C17.4156 12.5871 17.2812 13.0611 16.8072 13.5509C15.9382 14.4436 14.4688 14.4594 13.6472 13.5904C13.1337 13.0374 13.0389 12.7293 13.0073 11.4811L12.9757 10.3593H15.1956H17.4156V11.3863ZM23.0246 11.331C23.0246 12.5318 22.914 12.9663 22.4558 13.4798C21.5631 14.491 20.0621 14.491 19.1694 13.4798C18.7112 12.9663 18.6006 12.5318 18.6006 11.331V10.3593H20.8126H23.0246V11.331ZM28.6178 11.4811C28.5941 12.4765 28.5704 12.6503 28.4124 12.9663C27.6698 14.3883 25.9081 14.6806 24.8179 13.5509C24.3439 13.0611 24.2096 12.5871 24.2096 11.3863V10.3593H26.4295H28.6494L28.6178 11.4811ZM34.2268 11.4416C34.2031 12.358 34.1636 12.595 34.0135 12.9268C33.2472 14.6332 30.9167 14.6885 30.0319 13.0137C29.8818 12.7293 29.8581 12.5397 29.8344 11.5206L29.8028 10.3593H32.0306H34.2584L34.2268 11.4416ZM39.8358 11.4416C39.8042 12.3501 39.7726 12.6029 39.6225 12.9268C39.2828 13.6931 38.6508 14.1434 37.8371 14.2145C36.8496 14.2935 36.0991 13.8827 35.6725 13.0374C35.4355 12.5555 35.4276 12.516 35.4276 11.4495V10.3593H37.6475H39.8753L39.8358 11.4416ZM7.93551 15.0045C8.44901 15.3047 9.08891 15.439 9.83152 15.3995C10.4161 15.3758 10.6057 15.3284 11.0639 15.0993C11.3878 14.9413 11.7749 14.6648 12.0119 14.4278L12.4069 14.017L12.9283 14.5068C13.663 15.202 14.1054 15.3679 15.243 15.3758C16.0725 15.3758 16.1436 15.36 16.6571 15.1072C16.9652 14.9571 17.3682 14.6727 17.6131 14.4199L18.0397 13.9933L18.253 14.2698C18.5374 14.6411 19.2958 15.1388 19.8172 15.2889C20.3623 15.4469 21.2629 15.4469 21.808 15.2889C22.3294 15.1388 23.0878 14.6411 23.3722 14.2698L23.5855 13.9933L24.0121 14.4199C24.257 14.6727 24.6599 14.9571 24.968 15.1072C25.4815 15.36 25.5526 15.3758 26.3821 15.3758C27.5197 15.3679 27.9621 15.202 28.6968 14.5068L29.2182 14.017L29.6132 14.4278C29.8502 14.6648 30.2373 14.9413 30.5612 15.0993C31.0194 15.3284 31.209 15.3758 31.7936 15.3995C32.9075 15.4548 33.6817 15.1625 34.4322 14.3962L34.8114 14.0091L35.238 14.4357C35.6804 14.8781 36.0991 15.1309 36.6442 15.2889L36.9681 15.3837L36.9918 23.6156L37.0076 31.8474H25.8686H14.7295V25.164C14.7295 17.7695 14.7532 18.1408 14.2239 17.7616L13.979 17.5878H10.187C6.0079 17.5878 6.1817 17.5641 5.8262 18.0855C5.6919 18.2909 5.684 18.6701 5.6603 25.0692L5.6445 31.8474H5.131H4.6175L4.6333 23.6156L4.657 15.3837L4.9809 15.2889C5.526 15.1309 5.9447 14.8781 6.3792 14.4357L6.79 14.017L7.22451 14.4278C7.46151 14.649 7.78541 14.9097 7.93551 15.0045ZM13.5445 25.2904V31.8474H10.187H6.8295V25.2904V18.7333H10.187H13.5445V25.2904ZM39.6225 33.2615C39.8516 33.4906 39.8516 33.5064 39.8516 34.407V35.3234H20.8126H1.77348V34.407C1.77348 33.5064 1.77348 33.4906 2.00258 33.2615L2.23169 33.0324H20.8126H39.3934L39.6225 33.2615Z"/>
</mask>
<path d="M4.02499 0.436863C3.40089 0.713364 3.28239 1.10047 3.27449 2.91747V4.35528L1.93148 7.04129L0.588478 9.7273V10.8491C0.588478 12.2711 0.675378 12.8478 0.96768 13.4798C1.37848 14.3488 2.06578 14.9571 2.99799 15.2731L3.39299 15.4074L3.41669 23.6235L3.43249 31.8474H2.73729C2.15268 31.8474 1.97888 31.879 1.63918 32.0449C0.809679 32.4636 0.588478 32.9929 0.588478 34.5887C0.588478 35.8606 0.659578 36.1371 1.05458 36.3741C1.26788 36.5005 2.54769 36.5084 20.8126 36.5084C39.0774 36.5084 40.3573 36.5005 40.5705 36.3741C40.9656 36.1371 41.0367 35.8606 41.0367 34.5887C41.0367 32.9929 40.8155 32.4636 39.9859 32.0449C39.6462 31.879 39.4724 31.8474 38.8878 31.8474H38.1926L38.2084 23.6235L38.2321 15.3916L38.5481 15.2968C39.6067 14.9808 40.3889 14.2382 40.7997 13.1638C40.9577 12.753 40.9814 12.5002 41.0209 11.2283L41.0604 9.7668L39.7252 7.12029L38.3901 4.47378L38.3506 2.85427C38.3111 1.07677 38.2637 0.895065 37.7739 0.531662L37.5527 0.365761L23.7198 0.342064L9.87892 0.326263L9.69722 0.500065C9.38122 0.800266 9.49972 1.25846 9.94212 1.43227C10.0843 1.48757 14.5083 1.51127 23.6645 1.51127H37.1735L37.1498 2.67257L37.1261 3.84178H20.8126H4.499L4.47529 2.67257L4.45159 1.51127H5.8657C6.6952 1.51127 7.38251 1.47177 7.53261 1.42437C7.95921 1.27427 8.07771 0.800266 7.75381 0.500065C7.58001 0.334164 7.50891 0.326263 5.9131 0.326263C4.7202 0.334164 4.19879 0.357864 4.02499 0.436863ZM7.83281 5.16108C7.81701 5.21638 7.48521 6.14069 7.09811 7.21509L6.4029 9.1743H4.28569H2.16848L3.19549 7.12029L4.22249 5.06628H6.0474C7.47731 5.06628 7.86441 5.08998 7.83281 5.16108ZM12.8098 5.16108C12.794 5.21638 12.5886 6.14069 12.3595 7.21509L11.9329 9.1743H9.81572C8.65441 9.1743 7.69851 9.1427 7.69851 9.1111C7.69851 9.0795 8.02241 8.1631 8.40951 7.08079C8.80451 5.99849 9.12051 5.09788 9.12051 5.08998C9.12051 5.07418 9.95792 5.06628 10.9849 5.06628C12.4464 5.06628 12.8414 5.08998 12.8098 5.16108ZM17.7316 5.16108C17.7316 5.21638 17.6763 6.14069 17.5973 7.21509L17.463 9.1743H15.3062H13.1495L13.189 8.9926C13.268 8.6529 14.0185 5.12948 14.0185 5.09788C14.0185 5.08208 14.8559 5.06628 15.875 5.06628C17.305 5.06628 17.7316 5.08998 17.7316 5.16108ZM22.7797 6.42509C22.8271 7.17559 22.8982 8.0999 22.9219 8.4791L22.9693 9.1743H20.8126H18.6559L18.7033 8.4791C18.727 8.0999 18.7981 7.17559 18.8455 6.42509L18.9403 5.06628H20.8126H22.6849L22.7797 6.42509ZM27.6066 5.09788C27.6066 5.12948 28.3571 8.6529 28.4361 8.9926L28.4756 9.1743H26.3189H24.1622L24.0279 7.21509C23.9489 6.14069 23.8936 5.21638 23.8936 5.16108C23.8936 5.08998 24.3202 5.06628 25.7501 5.06628C26.7692 5.06628 27.6066 5.08208 27.6066 5.09788ZM32.5046 5.08998C32.5046 5.09788 32.8285 5.99849 33.2156 7.08079C33.6106 8.1631 33.9266 9.0795 33.9266 9.1111C33.9266 9.1427 32.9707 9.1743 31.8094 9.1743H29.6922L29.2656 7.21509C29.0365 6.14069 28.8311 5.21638 28.8153 5.16108C28.7837 5.08998 29.1787 5.06628 30.6402 5.06628C31.6672 5.06628 32.5046 5.07418 32.5046 5.08998ZM38.4296 7.12029L39.4566 9.1743H37.3394H35.2222L34.527 7.21509C34.1399 6.14069 33.8081 5.21638 33.7923 5.16108C33.7607 5.08998 34.1478 5.06628 35.5777 5.06628H37.4026L38.4296 7.12029ZM6.1975 11.4495C6.1975 12.516 6.1896 12.5555 5.9526 13.0374C5.526 13.8827 4.7755 14.2935 3.78799 14.2145C2.97429 14.1434 2.34229 13.6931 2.00258 12.9268C1.85248 12.6029 1.82088 12.3501 1.78928 11.4416L1.74978 10.3593H3.97759H6.1975V11.4495ZM11.7907 11.5206C11.767 12.5397 11.7433 12.7293 11.5932 13.0137C10.7084 14.6885 8.37791 14.6332 7.61161 12.9268C7.46151 12.595 7.42201 12.358 7.39831 11.4416L7.36671 10.3593H9.59452H11.8223L11.7907 11.5206ZM17.4156 11.3863C17.4156 12.5871 17.2812 13.0611 16.8072 13.5509C15.9382 14.4436 14.4688 14.4594 13.6472 13.5904C13.1337 13.0374 13.0389 12.7293 13.0073 11.4811L12.9757 10.3593H15.1956H17.4156V11.3863ZM23.0246 11.331C23.0246 12.5318 22.914 12.9663 22.4558 13.4798C21.5631 14.491 20.0621 14.491 19.1694 13.4798C18.7112 12.9663 18.6006 12.5318 18.6006 11.331V10.3593H20.8126H23.0246V11.331ZM28.6178 11.4811C28.5941 12.4765 28.5704 12.6503 28.4124 12.9663C27.6698 14.3883 25.9081 14.6806 24.8179 13.5509C24.3439 13.0611 24.2096 12.5871 24.2096 11.3863V10.3593H26.4295H28.6494L28.6178 11.4811ZM34.2268 11.4416C34.2031 12.358 34.1636 12.595 34.0135 12.9268C33.2472 14.6332 30.9167 14.6885 30.0319 13.0137C29.8818 12.7293 29.8581 12.5397 29.8344 11.5206L29.8028 10.3593H32.0306H34.2584L34.2268 11.4416ZM39.8358 11.4416C39.8042 12.3501 39.7726 12.6029 39.6225 12.9268C39.2828 13.6931 38.6508 14.1434 37.8371 14.2145C36.8496 14.2935 36.0991 13.8827 35.6725 13.0374C35.4355 12.5555 35.4276 12.516 35.4276 11.4495V10.3593H37.6475H39.8753L39.8358 11.4416ZM7.93551 15.0045C8.44901 15.3047 9.08891 15.439 9.83152 15.3995C10.4161 15.3758 10.6057 15.3284 11.0639 15.0993C11.3878 14.9413 11.7749 14.6648 12.0119 14.4278L12.4069 14.017L12.9283 14.5068C13.663 15.202 14.1054 15.3679 15.243 15.3758C16.0725 15.3758 16.1436 15.36 16.6571 15.1072C16.9652 14.9571 17.3682 14.6727 17.6131 14.4199L18.0397 13.9933L18.253 14.2698C18.5374 14.6411 19.2958 15.1388 19.8172 15.2889C20.3623 15.4469 21.2629 15.4469 21.808 15.2889C22.3294 15.1388 23.0878 14.6411 23.3722 14.2698L23.5855 13.9933L24.0121 14.4199C24.257 14.6727 24.6599 14.9571 24.968 15.1072C25.4815 15.36 25.5526 15.3758 26.3821 15.3758C27.5197 15.3679 27.9621 15.202 28.6968 14.5068L29.2182 14.017L29.6132 14.4278C29.8502 14.6648 30.2373 14.9413 30.5612 15.0993C31.0194 15.3284 31.209 15.3758 31.7936 15.3995C32.9075 15.4548 33.6817 15.1625 34.4322 14.3962L34.8114 14.0091L35.238 14.4357C35.6804 14.8781 36.0991 15.1309 36.6442 15.2889L36.9681 15.3837L36.9918 23.6156L37.0076 31.8474H25.8686H14.7295V25.164C14.7295 17.7695 14.7532 18.1408 14.2239 17.7616L13.979 17.5878H10.187C6.0079 17.5878 6.1817 17.5641 5.8262 18.0855C5.6919 18.2909 5.684 18.6701 5.6603 25.0692L5.6445 31.8474H5.131H4.6175L4.6333 23.6156L4.657 15.3837L4.9809 15.2889C5.526 15.1309 5.9447 14.8781 6.3792 14.4357L6.79 14.017L7.22451 14.4278C7.46151 14.649 7.78541 14.9097 7.93551 15.0045ZM13.5445 25.2904V31.8474H10.187H6.8295V25.2904V18.7333H10.187H13.5445V25.2904ZM39.6225 33.2615C39.8516 33.4906 39.8516 33.5064 39.8516 34.407V35.3234H20.8126H1.77348V34.407C1.77348 33.5064 1.77348 33.4906 2.00258 33.2615L2.23169 33.0324H20.8126H39.3934L39.6225 33.2615Z" fill="#E31E24"/>
<path d="M4.02499 0.436863C3.40089 0.713364 3.28239 1.10047 3.27449 2.91747V4.35528L1.93148 7.04129L0.588478 9.7273V10.8491C0.588478 12.2711 0.675378 12.8478 0.96768 13.4798C1.37848 14.3488 2.06578 14.9571 2.99799 15.2731L3.39299 15.4074L3.41669 23.6235L3.43249 31.8474H2.73729C2.15268 31.8474 1.97888 31.879 1.63918 32.0449C0.809679 32.4636 0.588478 32.9929 0.588478 34.5887C0.588478 35.8606 0.659578 36.1371 1.05458 36.3741C1.26788 36.5005 2.54769 36.5084 20.8126 36.5084C39.0774 36.5084 40.3573 36.5005 40.5705 36.3741C40.9656 36.1371 41.0367 35.8606 41.0367 34.5887C41.0367 32.9929 40.8155 32.4636 39.9859 32.0449C39.6462 31.879 39.4724 31.8474 38.8878 31.8474H38.1926L38.2084 23.6235L38.2321 15.3916L38.5481 15.2968C39.6067 14.9808 40.3889 14.2382 40.7997 13.1638C40.9577 12.753 40.9814 12.5002 41.0209 11.2283L41.0604 9.7668L39.7252 7.12029L38.3901 4.47378L38.3506 2.85427C38.3111 1.07677 38.2637 0.895065 37.7739 0.531662L37.5527 0.365761L23.7198 0.342064L9.87892 0.326263L9.69722 0.500065C9.38122 0.800266 9.49972 1.25846 9.94212 1.43227C10.0843 1.48757 14.5083 1.51127 23.6645 1.51127H37.1735L37.1498 2.67257L37.1261 3.84178H20.8126H4.499L4.47529 2.67257L4.45159 1.51127H5.8657C6.6952 1.51127 7.38251 1.47177 7.53261 1.42437C7.95921 1.27427 8.07771 0.800266 7.75381 0.500065C7.58001 0.334164 7.50891 0.326263 5.9131 0.326263C4.7202 0.334164 4.19879 0.357864 4.02499 0.436863ZM7.83281 5.16108C7.81701 5.21638 7.48521 6.14069 7.09811 7.21509L6.4029 9.1743H4.28569H2.16848L3.19549 7.12029L4.22249 5.06628H6.0474C7.47731 5.06628 7.86441 5.08998 7.83281 5.16108ZM12.8098 5.16108C12.794 5.21638 12.5886 6.14069 12.3595 7.21509L11.9329 9.1743H9.81572C8.65441 9.1743 7.69851 9.1427 7.69851 9.1111C7.69851 9.0795 8.02241 8.1631 8.40951 7.08079C8.80451 5.99849 9.12051 5.09788 9.12051 5.08998C9.12051 5.07418 9.95792 5.06628 10.9849 5.06628C12.4464 5.06628 12.8414 5.08998 12.8098 5.16108ZM17.7316 5.16108C17.7316 5.21638 17.6763 6.14069 17.5973 7.21509L17.463 9.1743H15.3062H13.1495L13.189 8.9926C13.268 8.6529 14.0185 5.12948 14.0185 5.09788C14.0185 5.08208 14.8559 5.06628 15.875 5.06628C17.305 5.06628 17.7316 5.08998 17.7316 5.16108ZM22.7797 6.42509C22.8271 7.17559 22.8982 8.0999 22.9219 8.4791L22.9693 9.1743H20.8126H18.6559L18.7033 8.4791C18.727 8.0999 18.7981 7.17559 18.8455 6.42509L18.9403 5.06628H20.8126H22.6849L22.7797 6.42509ZM27.6066 5.09788C27.6066 5.12948 28.3571 8.6529 28.4361 8.9926L28.4756 9.1743H26.3189H24.1622L24.0279 7.21509C23.9489 6.14069 23.8936 5.21638 23.8936 5.16108C23.8936 5.08998 24.3202 5.06628 25.7501 5.06628C26.7692 5.06628 27.6066 5.08208 27.6066 5.09788ZM32.5046 5.08998C32.5046 5.09788 32.8285 5.99849 33.2156 7.08079C33.6106 8.1631 33.9266 9.0795 33.9266 9.1111C33.9266 9.1427 32.9707 9.1743 31.8094 9.1743H29.6922L29.2656 7.21509C29.0365 6.14069 28.8311 5.21638 28.8153 5.16108C28.7837 5.08998 29.1787 5.06628 30.6402 5.06628C31.6672 5.06628 32.5046 5.07418 32.5046 5.08998ZM38.4296 7.12029L39.4566 9.1743H37.3394H35.2222L34.527 7.21509C34.1399 6.14069 33.8081 5.21638 33.7923 5.16108C33.7607 5.08998 34.1478 5.06628 35.5777 5.06628H37.4026L38.4296 7.12029ZM6.1975 11.4495C6.1975 12.516 6.1896 12.5555 5.9526 13.0374C5.526 13.8827 4.7755 14.2935 3.78799 14.2145C2.97429 14.1434 2.34229 13.6931 2.00258 12.9268C1.85248 12.6029 1.82088 12.3501 1.78928 11.4416L1.74978 10.3593H3.97759H6.1975V11.4495ZM11.7907 11.5206C11.767 12.5397 11.7433 12.7293 11.5932 13.0137C10.7084 14.6885 8.37791 14.6332 7.61161 12.9268C7.46151 12.595 7.42201 12.358 7.39831 11.4416L7.36671 10.3593H9.59452H11.8223L11.7907 11.5206ZM17.4156 11.3863C17.4156 12.5871 17.2812 13.0611 16.8072 13.5509C15.9382 14.4436 14.4688 14.4594 13.6472 13.5904C13.1337 13.0374 13.0389 12.7293 13.0073 11.4811L12.9757 10.3593H15.1956H17.4156V11.3863ZM23.0246 11.331C23.0246 12.5318 22.914 12.9663 22.4558 13.4798C21.5631 14.491 20.0621 14.491 19.1694 13.4798C18.7112 12.9663 18.6006 12.5318 18.6006 11.331V10.3593H20.8126H23.0246V11.331ZM28.6178 11.4811C28.5941 12.4765 28.5704 12.6503 28.4124 12.9663C27.6698 14.3883 25.9081 14.6806 24.8179 13.5509C24.3439 13.0611 24.2096 12.5871 24.2096 11.3863V10.3593H26.4295H28.6494L28.6178 11.4811ZM34.2268 11.4416C34.2031 12.358 34.1636 12.595 34.0135 12.9268C33.2472 14.6332 30.9167 14.6885 30.0319 13.0137C29.8818 12.7293 29.8581 12.5397 29.8344 11.5206L29.8028 10.3593H32.0306H34.2584L34.2268 11.4416ZM39.8358 11.4416C39.8042 12.3501 39.7726 12.6029 39.6225 12.9268C39.2828 13.6931 38.6508 14.1434 37.8371 14.2145C36.8496 14.2935 36.0991 13.8827 35.6725 13.0374C35.4355 12.5555 35.4276 12.516 35.4276 11.4495V10.3593H37.6475H39.8753L39.8358 11.4416ZM7.93551 15.0045C8.44901 15.3047 9.08891 15.439 9.83152 15.3995C10.4161 15.3758 10.6057 15.3284 11.0639 15.0993C11.3878 14.9413 11.7749 14.6648 12.0119 14.4278L12.4069 14.017L12.9283 14.5068C13.663 15.202 14.1054 15.3679 15.243 15.3758C16.0725 15.3758 16.1436 15.36 16.6571 15.1072C16.9652 14.9571 17.3682 14.6727 17.6131 14.4199L18.0397 13.9933L18.253 14.2698C18.5374 14.6411 19.2958 15.1388 19.8172 15.2889C20.3623 15.4469 21.2629 15.4469 21.808 15.2889C22.3294 15.1388 23.0878 14.6411 23.3722 14.2698L23.5855 13.9933L24.0121 14.4199C24.257 14.6727 24.6599 14.9571 24.968 15.1072C25.4815 15.36 25.5526 15.3758 26.3821 15.3758C27.5197 15.3679 27.9621 15.202 28.6968 14.5068L29.2182 14.017L29.6132 14.4278C29.8502 14.6648 30.2373 14.9413 30.5612 15.0993C31.0194 15.3284 31.209 15.3758 31.7936 15.3995C32.9075 15.4548 33.6817 15.1625 34.4322 14.3962L34.8114 14.0091L35.238 14.4357C35.6804 14.8781 36.0991 15.1309 36.6442 15.2889L36.9681 15.3837L36.9918 23.6156L37.0076 31.8474H25.8686H14.7295V25.164C14.7295 17.7695 14.7532 18.1408 14.2239 17.7616L13.979 17.5878H10.187C6.0079 17.5878 6.1817 17.5641 5.8262 18.0855C5.6919 18.2909 5.684 18.6701 5.6603 25.0692L5.6445 31.8474H5.131H4.6175L4.6333 23.6156L4.657 15.3837L4.9809 15.2889C5.526 15.1309 5.9447 14.8781 6.3792 14.4357L6.79 14.017L7.22451 14.4278C7.46151 14.649 7.78541 14.9097 7.93551 15.0045ZM13.5445 25.2904V31.8474H10.187H6.8295V25.2904V18.7333H10.187H13.5445V25.2904ZM39.6225 33.2615C39.8516 33.4906 39.8516 33.5064 39.8516 34.407V35.3234H20.8126H1.77348V34.407C1.77348 33.5064 1.77348 33.4906 2.00258 33.2615L2.23169 33.0324H20.8126H39.3934L39.6225 33.2615Z" stroke="#E31E24" stroke-width="0.212885" mask="url(#path-1-outside-1_27:425)"/>
<path d="M16.5862 17.7064C16.4044 17.7933 16.1911 17.9829 16.1121 18.1172C15.962 18.37 15.9541 18.5438 15.9541 23.3944C15.9541 28.0712 15.962 28.4267 16.0963 28.6716C16.1753 28.8138 16.3491 29.0034 16.4913 29.0824C16.7363 29.2325 16.9575 29.2404 25.6791 29.2404H34.614L34.8826 29.0587C35.4514 28.6874 35.4277 28.8928 35.4277 23.4339C35.4277 18.7492 35.4198 18.5201 35.2697 18.1962C35.1512 17.9276 35.0406 17.8249 34.7641 17.6985C34.4244 17.5484 34.2506 17.5484 30.6166 17.5642C27.0221 17.5879 26.8246 17.5958 26.6666 17.738C26.4533 17.9355 26.4454 18.3621 26.6587 18.5754C26.8088 18.7255 26.9194 18.7334 30.5297 18.7334H34.2427V23.3944V28.0554H25.7107H17.1787V23.3944V18.7334H20.8364H24.502L24.6679 18.5517C24.8812 18.3226 24.8891 18.0224 24.6916 17.7775L24.5415 17.5879L20.7179 17.5642C17.0286 17.5484 16.8943 17.5484 16.5862 17.7064Z" fill="#E31E24"/>
<path d="M11.6881 24.0422C11.38 24.2081 11.3326 24.3503 11.3326 25.0771C11.3326 25.8671 11.3879 26.0172 11.7197 26.1515C11.9093 26.2305 11.9883 26.2305 12.1858 26.1278C12.486 25.9698 12.5176 25.8829 12.5176 25.0929C12.5176 24.3108 12.486 24.216 12.1937 24.0659C11.933 23.9237 11.8935 23.9237 11.6881 24.0422Z" fill="#E31E24"/>
</svg>
