<svg width="45" height="34" viewBox="0 0 45 34" fill="none" xmlns="http://www.w3.org/2000/svg">
<path d="M2.50423 0.152954C1.13162 0.152954 0 1.28457 0 2.65718V26.0824C0 27.5528 1.21195 28.7647 2.68235 28.7647H6.34265C6.76875 31.2934 8.9761 33.2353 11.6235 33.2353C14.271 33.2353 16.4783 31.2934 16.9044 28.7647H30.4838C30.9099 31.2934 33.1173 33.2353 35.7647 33.2353C38.4121 33.2353 40.6195 31.2934 41.0456 28.7647H42.0235C42.7675 28.7647 43.4101 28.4189 43.8851 27.9439C44.3601 27.4689 44.7059 26.8263 44.7059 26.0824V17.5009C44.7059 16.495 44.3322 15.58 43.9899 14.878C43.6441 14.1794 43.2949 13.6765 43.2949 13.6765L43.2844 13.666L39.6031 8.7274L39.5926 8.71692C38.7998 7.72501 37.5285 6.41178 35.7647 6.41178H28.6118C28.2904 6.41178 27.9936 6.48512 27.7176 6.59689V2.74799C27.7176 1.31601 26.5546 0.152954 25.1226 0.152954H2.50423ZM2.50423 1.94119H25.1226C25.4824 1.94119 25.9294 2.38825 25.9294 2.74799V26.9765H16.9044C16.4783 24.4478 14.271 22.5059 11.6235 22.5059C8.9761 22.5059 6.76875 24.4478 6.34265 26.9765H2.68235C2.1864 26.9765 1.78824 26.5783 1.78824 26.0824V2.65718C1.78824 2.24156 2.0886 1.94119 2.50423 1.94119ZM13.4118 3.72942C8.49412 3.72942 4.47059 7.75295 4.47059 12.6706C4.47059 17.5882 8.49412 21.6118 13.4118 21.6118C18.3294 21.6118 22.3529 17.5882 22.3529 12.6706C22.3529 7.75295 18.3294 3.72942 13.4118 3.72942ZM13.4118 5.51766C17.3445 5.51766 20.5647 8.73788 20.5647 12.6706C20.5647 16.6033 17.3445 19.8235 13.4118 19.8235C9.47904 19.8235 6.25882 16.6033 6.25882 12.6706C6.25882 8.73788 9.47904 5.51766 13.4118 5.51766ZM12.5176 7.30589V12.2235L10.0139 14.102C9.61983 14.3977 9.53938 14.9565 9.83403 15.3513C10.1297 15.7474 10.6907 15.8282 11.0862 15.5317L14.3059 13.1177V7.30589C14.3059 6.12126 12.5176 6.10557 12.5176 7.30589ZM28.6118 8.20001H32.1882V16.2471C32.1882 16.991 32.534 17.6337 33.009 18.1087C33.484 18.5837 34.1267 18.9294 34.8706 18.9294H42.9176V26.0824C42.9176 26.2325 42.8164 26.484 42.6208 26.6796C42.4252 26.8752 42.1737 26.9765 42.0235 26.9765H41.0456C40.6195 24.4478 38.4121 22.5059 35.7647 22.5059C33.1173 22.5059 30.9099 24.4478 30.4838 26.9765H27.7176V9.09413C27.7176 8.94395 27.8189 8.69248 28.0145 8.49689C28.2101 8.3013 28.4616 8.20001 28.6118 8.20001ZM33.9765 8.20001H35.7647C36.5051 8.20001 37.5564 9.03475 38.1956 9.83108L41.8279 14.7033C41.8279 14.7033 42.1004 15.0945 42.3833 15.6708C42.6103 16.1318 42.7395 16.6697 42.8129 17.1412H34.8706C34.7204 17.1412 34.4689 17.0399 34.2733 16.8443C34.0778 16.6487 33.9765 16.3973 33.9765 16.2471V8.20001ZM11.6235 24.2941C13.6108 24.2941 15.2 25.8833 15.2 27.8706C15.2 29.8579 13.6108 31.4471 11.6235 31.4471C9.63621 31.4471 8.04706 29.8579 8.04706 27.8706C8.04706 25.8833 9.63621 24.2941 11.6235 24.2941ZM35.7647 24.2941C37.752 24.2941 39.3412 25.8833 39.3412 27.8706C39.3412 29.8579 37.752 31.4471 35.7647 31.4471C33.7774 31.4471 32.1882 29.8579 32.1882 27.8706C32.1882 25.8833 33.7774 24.2941 35.7647 24.2941Z" fill="#E31E24"/>
</svg>
